# xmcd CD database file
#
# Track frame offsets:
#	150
#	38171
#	71453
#	107857
#	137386
#	185503
#	217977
#
# Disc length: 3565 seconds
#
# Revision: 0
# Processed by: cddbd v1.5.1PL0 Copyright (c) Steve Scherf et al.
# Submitted via: CDex 1.51
#
DISCID=5d0deb07
DTITLE=Jurgen Friedrich - Voyage Out
DYEAR=2001
DGENRE=Jazz
TTITLE0=Are We There Yet?
TTITLE1=Voyage Out
TTITLE2=Autumn In New York
TTITLE3=Fair Grounds
TTITLE4=English Waltz
TTITLE5=Do Not Disturb
TTITLE6=Streams
EXTD=YEAR: 2001
EXTT0=
EXTT1=
EXTT2=
EXTT3=
EXTT4=
EXTT5=
EXTT6=
PLAYORDER=
